# Blender 4.2.1 LTS
# www.blender.org
mtllib border-mesh.mtl
o Cube
v -1.000000 -1.000000 0.000000
v -1.000000 1.000000 0.000000
v -1.000000 -1.000000 -0.209128
v -1.000000 1.000000 -0.209128
v 1.000000 -1.000000 0.000000
v 1.000000 1.000000 0.000000
v 1.000000 -1.000000 -0.209128
v 1.000000 1.000000 -0.209128
v -0.962734 -0.962734 -0.209128
v -0.962734 0.962734 -0.209128
v 0.962734 0.962734 -0.209128
v 0.962734 -0.962734 -0.209128
v -0.962734 0.962734 0.000000
v 0.962734 0.962734 0.000000
v 0.962734 -0.962734 0.000000
v -0.962734 -0.962734 0.000000
v -0.413580 -0.413580 -0.209128
v -0.413580 0.413580 -0.209128
v 0.413580 0.413580 -0.209128
v 0.413580 -0.413580 -0.209128
v 0.413580 -0.413580 0.000000
v -0.413580 0.413580 0.000000
v 0.413580 0.413580 0.000000
v -0.413580 -0.413580 0.000000
vn -1.0000 -0.0000 -0.0000
vn -0.0000 -0.0000 -1.0000
vn 1.0000 -0.0000 -0.0000
vn -0.0000 -0.0000 1.0000
vn -0.0000 -1.0000 -0.0000
vn -0.0000 1.0000 -0.0000
vt 0.375000 0.000000
vt 0.625000 0.000000
vt 0.625000 0.250000
vt 0.375000 0.250000
vt 0.620342 0.495342
vt 0.625000 0.500000
vt 0.375000 0.500000
vt 0.379658 0.495342
vt 0.620342 0.254658
vt 0.625000 0.750000
vt 0.375000 0.750000
vt 0.625000 1.000000
vt 0.375000 1.000000
vt 0.379658 0.995342
vt 0.620342 0.995342
vt 0.379658 0.754658
vt 0.125000 0.500000
vt 0.125000 0.750000
vt 0.875000 0.500000
vt 0.875000 0.750000
vt 0.375000 0.125000
vt 0.375000 0.152153
vt 0.625000 0.152153
vt 0.625000 0.125000
vt 0.625000 0.625000
vt 0.625000 0.597847
vt 0.375000 0.597847
vt 0.375000 0.625000
vt 0.125000 0.597847
vt 0.125000 0.625000
vt 0.875000 0.597847
vt 0.875000 0.625000
vt 0.379658 0.254658
vt 0.620342 0.754658
vt 0.448303 0.323303
vt 0.551697 0.323302
vt 0.551697 0.426698
vt 0.448302 0.426697
vt 0.448303 0.823302
vt 0.551697 0.823302
vt 0.551697 0.926697
vt 0.448302 0.926697
vt 0.625000 0.188207
vt 0.375000 0.188207
vt 0.375000 0.561793
vt 0.625000 0.561793
vt 0.125000 0.561793
vt 0.875000 0.561793
s 0
usemtl Material.001
f 1/1/1 2/2/1 4/3/1 3/4/1
f 11/5/2 8/6/2 7/7/2 12/8/2
f 10/9/2 4/3/2 8/6/2 11/5/2
f 7/7/3 8/6/3 6/10/3 5/11/3
f 2/12/4 1/13/4 16/14/4 13/15/4
f 16/14/4 1/13/4 5/11/4 15/16/4
f 3/17/5 7/7/5 5/11/5 1/18/5
f 8/6/6 4/19/6 2/20/6 6/10/6
f 16/21/3 9/22/3 10/23/3 13/24/3
f 14/25/1 11/26/1 12/27/1 15/28/1
f 15/28/6 12/27/6 9/29/6 16/30/6
f 10/31/5 11/26/5 14/25/5 13/32/5
f 3/4/2 4/3/2 10/9/2 9/33/2
f 7/7/2 3/4/2 9/33/2 12/8/2
f 5/11/4 6/10/4 14/34/4 15/16/4
f 6/10/4 2/12/4 13/15/4 14/34/4
f 17/35/2 18/36/2 19/37/2 20/38/2
f 21/39/4 23/40/4 22/41/4 24/42/4
f 22/24/1 18/43/1 17/44/1 24/21/1
f 20/45/3 19/46/3 23/25/3 21/28/3
f 17/47/5 20/45/5 21/28/5 24/30/5
f 23/25/6 19/46/6 18/48/6 22/32/6
