# Blender 4.2.1 LTS
# www.blender.org
mtllib strobe-mesh.mtl
o Cube
v -1.000000 -1.000000 0.000000
v -1.000000 1.000000 0.000000
v -1.000000 -1.000000 -0.126069
v -1.000000 1.000000 -0.126069
v 1.000000 -1.000000 0.000000
v 1.000000 1.000000 0.000000
v 1.000000 -1.000000 -0.126069
v 1.000000 1.000000 -0.126069
v -0.843258 -0.843258 -0.126069
v 0.843258 0.843258 -0.126069
v -0.843258 0.843258 -0.126069
v 0.843258 -0.843258 -0.126069
v 0.843258 -0.843258 0.000000
v -0.843258 0.843258 0.000000
v 0.843258 0.843258 0.000000
v -0.843258 -0.843258 0.000000
v -1.000000 -0.819027 0.000000
v -1.000000 -0.669220 0.000000
v -1.000000 -0.519413 0.000000
v -1.000000 -0.369607 0.000000
v -1.000000 -0.219800 0.000000
v -1.000000 -0.069993 0.000000
v -1.000000 0.079814 0.000000
v -1.000000 0.229620 0.000000
v -1.000000 0.379427 0.000000
v -1.000000 0.529234 0.000000
v -1.000000 0.679041 0.000000
v -1.000000 0.828847 0.000000
v -1.000000 -0.819027 -0.126069
v -1.000000 -0.669220 -0.126069
v -1.000000 -0.519413 -0.126069
v -1.000000 -0.369607 -0.126069
v -1.000000 -0.219800 -0.126069
v -1.000000 -0.069993 -0.126069
v -1.000000 0.079814 -0.126069
v -1.000000 0.229620 -0.126069
v -1.000000 0.379427 -0.126069
v -1.000000 0.529234 -0.126069
v -1.000000 0.679041 -0.126069
v -1.000000 0.828847 -0.126069
v 1.000000 -0.819027 -0.126069
v 1.000000 -0.669220 -0.126069
v 1.000000 -0.519413 -0.126069
v 1.000000 -0.369607 -0.126069
v 1.000000 -0.219800 -0.126069
v 1.000000 -0.069993 -0.126069
v 1.000000 0.079814 -0.126069
v 1.000000 0.229620 -0.126069
v 1.000000 0.379427 -0.126069
v 1.000000 0.529234 -0.126069
v 1.000000 0.679041 -0.126069
v 1.000000 0.828847 -0.126069
v 0.843258 -0.819027 -0.126069
v 0.843258 -0.669220 -0.126069
v 0.843258 -0.519413 -0.126069
v 0.843258 -0.369607 -0.126069
v 0.843258 -0.219800 -0.126069
v 0.843258 -0.069993 -0.126069
v 0.843258 0.079814 -0.126069
v 0.843258 0.229620 -0.126069
v 0.843258 0.379427 -0.126069
v 0.843258 0.529234 -0.126069
v 0.843258 0.679041 -0.126069
v 0.843258 0.828847 -0.126069
v -0.843258 -0.819027 -0.126069
v -0.843258 -0.669220 -0.126069
v -0.843258 -0.519413 -0.126069
v -0.843258 -0.369607 -0.126069
v -0.843258 -0.219800 -0.126069
v -0.843258 -0.069993 -0.126069
v -0.843258 0.079814 -0.126069
v -0.843258 0.229620 -0.126069
v -0.843258 0.379427 -0.126069
v -0.843258 0.529234 -0.126069
v -0.843258 0.679041 -0.126069
v -0.843258 0.828847 -0.126069
v 1.000000 -0.819027 0.000000
v 1.000000 -0.669220 0.000000
v 1.000000 -0.519413 0.000000
v 1.000000 -0.369607 0.000000
v 1.000000 -0.219800 0.000000
v 1.000000 -0.069993 0.000000
v 1.000000 0.079814 0.000000
v 1.000000 0.229620 0.000000
v 1.000000 0.379427 0.000000
v 1.000000 0.529234 0.000000
v 1.000000 0.679041 0.000000
v 1.000000 0.828847 0.000000
v -0.843258 -0.819027 0.000000
v -0.843258 -0.669220 0.000000
v -0.843258 -0.519413 0.000000
v -0.843258 -0.369607 0.000000
v -0.843258 -0.219800 0.000000
v -0.843258 -0.069993 0.000000
v -0.843258 0.079814 0.000000
v -0.843258 0.229620 0.000000
v -0.843258 0.379427 0.000000
v -0.843258 0.529234 0.000000
v -0.843258 0.679041 0.000000
v -0.843258 0.828847 0.000000
v -0.821851 -1.000000 0.000000
v -0.672044 -1.000000 0.000000
v -0.222624 -1.000000 0.000000
v -0.372431 -1.000000 0.000000
v -0.522238 -1.000000 0.000000
v 0.376603 -1.000000 0.000000
v 0.226796 -1.000000 0.000000
v 0.076989 -1.000000 0.000000
v 0.826023 -1.000000 0.000000
v 0.676216 -1.000000 0.000000
v 0.526409 -1.000000 0.000000
v -0.072818 -1.000000 0.000000
v -0.821851 -0.843258 0.000000
v -0.672044 -0.843258 0.000000
v -0.072818 -0.843258 0.000000
v -0.222624 -0.843258 0.000000
v -0.372431 -0.843258 0.000000
v -0.522238 -0.843258 0.000000
v 0.376603 -0.843258 0.000000
v 0.226796 -0.843258 0.000000
v 0.076989 -0.843258 0.000000
v 0.826023 -0.843258 0.000000
v 0.676216 -0.843258 0.000000
v 0.526409 -0.843258 0.000000
v -0.821851 -1.000000 -0.126069
v -0.672044 -1.000000 -0.126069
v -0.072818 -1.000000 -0.126069
v -0.222624 -1.000000 -0.126069
v -0.372431 -1.000000 -0.126069
v -0.522238 -1.000000 -0.126069
v 0.376603 -1.000000 -0.126069
v 0.226796 -1.000000 -0.126069
v 0.076989 -1.000000 -0.126069
v 0.826023 -1.000000 -0.126069
v 0.676216 -1.000000 -0.126069
v 0.526409 -1.000000 -0.126069
v -0.821851 1.000000 -0.126069
v -0.672044 1.000000 -0.126069
v -0.522238 1.000000 -0.126069
v -0.222624 1.000000 -0.126069
v -0.372431 1.000000 -0.126069
v -0.072818 1.000000 -0.126069
v 0.076989 1.000000 -0.126069
v 0.226796 1.000000 -0.126069
v 0.376603 1.000000 -0.126069
v 0.526409 1.000000 -0.126069
v 0.826023 1.000000 -0.126069
v 0.676216 1.000000 -0.126069
v -0.821851 1.000000 0.000000
v -0.672044 1.000000 0.000000
v -0.522238 1.000000 0.000000
v -0.372431 1.000000 0.000000
v -0.222624 1.000000 0.000000
v -0.072818 1.000000 0.000000
v 0.076989 1.000000 0.000000
v 0.226796 1.000000 0.000000
v 0.526409 1.000000 0.000000
v 0.376603 1.000000 0.000000
v 0.676216 1.000000 0.000000
v 0.826023 1.000000 0.000000
v 0.843258 -0.819027 0.000000
v 0.843258 -0.669220 0.000000
v 0.843258 -0.519413 0.000000
v 0.843258 -0.369607 0.000000
v 0.843258 -0.219800 0.000000
v 0.843258 -0.069993 0.000000
v 0.843258 0.079814 0.000000
v 0.843258 0.229620 0.000000
v 0.843258 0.379427 0.000000
v 0.843258 0.529234 0.000000
v 0.843258 0.679041 0.000000
v 0.843258 0.828847 0.000000
v -0.821851 -0.843258 -0.126069
v -0.672044 -0.843258 -0.126069
v -0.072818 -0.843258 -0.126069
v -0.222624 -0.843258 -0.126069
v -0.372431 -0.843258 -0.126069
v -0.522238 -0.843258 -0.126069
v 0.376603 -0.843258 -0.126069
v 0.226796 -0.843258 -0.126069
v 0.076989 -0.843258 -0.126069
v 0.826023 -0.843258 -0.126069
v 0.676216 -0.843258 -0.126069
v 0.526409 -0.843258 -0.126069
v -0.821851 0.843258 -0.126069
v -0.672044 0.843258 -0.126069
v -0.072818 0.843258 -0.126069
v -0.222624 0.843258 -0.126069
v -0.372431 0.843258 -0.126069
v -0.522238 0.843258 -0.126069
v 0.376603 0.843258 -0.126069
v 0.226796 0.843258 -0.126069
v 0.076989 0.843258 -0.126069
v 0.826023 0.843258 -0.126069
v 0.676216 0.843258 -0.126069
v 0.526409 0.843258 -0.126069
v -0.672044 0.843258 0.000000
v -0.821851 0.843258 0.000000
v -0.222624 0.843258 0.000000
v -0.372431 0.843258 0.000000
v -0.522238 0.843258 0.000000
v 0.376603 0.843258 0.000000
v 0.226796 0.843258 0.000000
v 0.076989 0.843258 0.000000
v 0.826023 0.843258 0.000000
v 0.676216 0.843258 0.000000
v 0.526409 0.843258 0.000000
v -0.072818 0.843258 0.000000
vn -1.0000 -0.0000 -0.0000
vn -0.0000 -0.0000 -1.0000
vn 1.0000 -0.0000 -0.0000
vn -0.0000 -0.0000 1.0000
vn -0.0000 -1.0000 -0.0000
vn -0.0000 1.0000 -0.0000
vt 0.603606 0.000000
vt 0.625000 0.000000
vt 0.625000 0.250000
vt 0.603606 0.250000
vt 0.375000 0.250000
vt 0.375000 0.000000
vt 0.397622 0.000000
vt 0.397622 0.250000
vt 0.435073 0.250000
vt 0.416348 0.250000
vt 0.416348 0.000000
vt 0.435073 0.000000
vt 0.472525 0.250000
vt 0.453799 0.250000
vt 0.453799 0.000000
vt 0.472525 0.000000
vt 0.509977 0.250000
vt 0.491251 0.250000
vt 0.491251 0.000000
vt 0.509977 0.000000
vt 0.547428 0.250000
vt 0.528703 0.250000
vt 0.528703 0.000000
vt 0.547428 0.000000
vt 0.584880 0.250000
vt 0.566154 0.250000
vt 0.566154 0.000000
vt 0.584880 0.000000
vt 0.375000 0.500000
vt 0.394593 0.480407
vt 0.397622 0.480407
vt 0.397622 0.500000
vt 0.416348 0.500000
vt 0.416348 0.480407
vt 0.435073 0.480407
vt 0.435073 0.500000
vt 0.453799 0.500000
vt 0.453799 0.480407
vt 0.472525 0.480407
vt 0.472525 0.500000
vt 0.491251 0.500000
vt 0.491251 0.480407
vt 0.509977 0.480407
vt 0.509977 0.500000
vt 0.528703 0.500000
vt 0.528703 0.480407
vt 0.547428 0.480407
vt 0.547428 0.500000
vt 0.566154 0.500000
vt 0.566154 0.480407
vt 0.584880 0.480407
vt 0.584880 0.500000
vt 0.603606 0.480407
vt 0.605407 0.480407
vt 0.625000 0.500000
vt 0.603606 0.500000
vt 0.605407 0.269593
vt 0.603606 0.269593
vt 0.394593 0.269593
vt 0.397622 0.269593
vt 0.416347 0.269593
vt 0.435073 0.269593
vt 0.453799 0.269593
vt 0.472525 0.269593
vt 0.491251 0.269593
vt 0.509977 0.269593
vt 0.528703 0.269593
vt 0.547428 0.269593
vt 0.566154 0.269593
vt 0.584880 0.269593
vt 0.625000 0.750000
vt 0.603606 0.750000
vt 0.397622 0.750000
vt 0.375000 0.750000
vt 0.435073 0.750000
vt 0.416348 0.750000
vt 0.472525 0.750000
vt 0.453799 0.750000
vt 0.509977 0.750000
vt 0.491251 0.750000
vt 0.547428 0.750000
vt 0.528703 0.750000
vt 0.584880 0.750000
vt 0.566154 0.750000
vt 0.397622 1.000000
vt 0.375000 1.000000
vt 0.394593 0.980407
vt 0.397622 0.980407
vt 0.416348 0.980407
vt 0.435073 0.980407
vt 0.435073 1.000000
vt 0.416348 1.000000
vt 0.453799 0.980407
vt 0.472525 0.980407
vt 0.472525 1.000000
vt 0.453799 1.000000
vt 0.491251 0.980407
vt 0.509977 0.980407
vt 0.509977 1.000000
vt 0.491251 1.000000
vt 0.528703 0.980407
vt 0.547428 0.980407
vt 0.547428 1.000000
vt 0.528703 1.000000
vt 0.566154 0.980407
vt 0.584880 0.980407
vt 0.584880 1.000000
vt 0.566154 1.000000
vt 0.603606 0.980407
vt 0.605407 0.980407
vt 0.625000 1.000000
vt 0.603606 1.000000
vt 0.375000 0.902828
vt 0.394593 0.902828
vt 0.394593 0.921554
vt 0.375000 0.921554
vt 0.375000 0.827925
vt 0.394593 0.827925
vt 0.394593 0.846651
vt 0.375000 0.846650
vt 0.394593 0.769593
vt 0.394593 0.771747
vt 0.375000 0.771747
vt 0.375000 0.809199
vt 0.375000 0.790473
vt 0.394593 0.790473
vt 0.394593 0.809199
vt 0.375000 0.865376
vt 0.394593 0.865376
vt 0.394593 0.884102
vt 0.375000 0.884102
vt 0.375000 0.977731
vt 0.394593 0.977731
vt 0.394593 0.959006
vt 0.375000 0.959006
vt 0.375000 0.940280
vt 0.394593 0.940280
vt 0.203446 0.500000
vt 0.222172 0.500000
vt 0.222172 0.750000
vt 0.203446 0.750000
vt 0.297075 0.500000
vt 0.297075 0.750000
vt 0.278349 0.750000
vt 0.278349 0.500000
vt 0.353253 0.500000
vt 0.353253 0.750000
vt 0.334527 0.500000
vt 0.334527 0.750000
vt 0.315801 0.750000
vt 0.315801 0.500000
vt 0.125000 0.750000
vt 0.125000 0.500000
vt 0.147269 0.500000
vt 0.147269 0.750000
vt 0.184720 0.750000
vt 0.165994 0.750000
vt 0.165994 0.500000
vt 0.184720 0.500000
vt 0.259624 0.750000
vt 0.240898 0.750000
vt 0.240898 0.500000
vt 0.259624 0.500000
vt 0.875000 0.500000
vt 0.875000 0.750000
vt 0.852731 0.750000
vt 0.852731 0.500000
vt 0.777828 0.500000
vt 0.796554 0.500000
vt 0.796554 0.750000
vt 0.777828 0.750000
vt 0.815280 0.500000
vt 0.834006 0.500000
vt 0.834006 0.750000
vt 0.815280 0.750000
vt 0.759102 0.500000
vt 0.759102 0.750000
vt 0.740376 0.750000
vt 0.740376 0.500000
vt 0.702925 0.500000
vt 0.721651 0.500000
vt 0.721651 0.750000
vt 0.702925 0.750000
vt 0.684199 0.500000
vt 0.684199 0.750000
vt 0.665473 0.750000
vt 0.665473 0.500000
vt 0.646747 0.750000
vt 0.646747 0.500000
vt 0.622864 0.143688
vt 0.625000 0.143688
vt 0.625000 0.125000
vt 0.622864 0.125000
vt 0.378592 0.125000
vt 0.375000 0.125000
vt 0.375000 0.143688
vt 0.378592 0.143688
vt 0.400798 0.143688
vt 0.423005 0.143688
vt 0.423005 0.125000
vt 0.400798 0.125000
vt 0.445211 0.143688
vt 0.467418 0.143688
vt 0.467418 0.125000
vt 0.445212 0.125000
vt 0.489625 0.143688
vt 0.511831 0.143688
vt 0.511831 0.125000
vt 0.489625 0.125000
vt 0.534038 0.143688
vt 0.556244 0.143688
vt 0.556244 0.125000
vt 0.534038 0.125000
vt 0.578451 0.143688
vt 0.600657 0.143688
vt 0.600657 0.125000
vt 0.578451 0.125000
vt 0.375000 0.606312
vt 0.375000 0.625000
vt 0.378592 0.625000
vt 0.378592 0.606312
vt 0.423005 0.606312
vt 0.400798 0.606312
vt 0.400798 0.625000
vt 0.423005 0.625000
vt 0.467418 0.606312
vt 0.445212 0.606312
vt 0.445211 0.625000
vt 0.467418 0.625000
vt 0.511831 0.606312
vt 0.489625 0.606312
vt 0.489625 0.625000
vt 0.511831 0.625000
vt 0.556244 0.606312
vt 0.534038 0.606312
vt 0.534038 0.625000
vt 0.556244 0.625000
vt 0.600657 0.606312
vt 0.578451 0.606312
vt 0.578451 0.625000
vt 0.600657 0.625000
vt 0.622864 0.625000
vt 0.625000 0.625000
vt 0.625000 0.606312
vt 0.622864 0.606312
vt 0.125000 0.606312
vt 0.125000 0.625000
vt 0.128173 0.625000
vt 0.128173 0.606312
vt 0.150380 0.606312
vt 0.150380 0.625000
vt 0.172586 0.625000
vt 0.172586 0.606312
vt 0.239206 0.606312
vt 0.239206 0.625000
vt 0.261412 0.625000
vt 0.261412 0.606312
vt 0.216999 0.606312
vt 0.194793 0.606312
vt 0.194793 0.625000
vt 0.216999 0.625000
vt 0.283619 0.625000
vt 0.305826 0.625000
vt 0.305826 0.606312
vt 0.283619 0.606312
vt 0.372445 0.606312
vt 0.372445 0.625000
vt 0.328032 0.625000
vt 0.350239 0.625000
vt 0.350239 0.606312
vt 0.328032 0.606312
vt 0.805207 0.606312
vt 0.783001 0.606312
vt 0.783001 0.625000
vt 0.805207 0.625000
vt 0.694174 0.606312
vt 0.694174 0.625000
vt 0.716381 0.625000
vt 0.716381 0.606312
vt 0.627555 0.606312
vt 0.627555 0.625000
vt 0.649761 0.606312
vt 0.649761 0.625000
vt 0.671968 0.625000
vt 0.671968 0.606312
vt 0.875000 0.625000
vt 0.875000 0.606312
vt 0.871827 0.606312
vt 0.871827 0.625000
vt 0.849620 0.606312
vt 0.827414 0.606312
vt 0.827414 0.625000
vt 0.849620 0.625000
vt 0.738587 0.625000
vt 0.760794 0.625000
vt 0.760794 0.606312
vt 0.738588 0.606312
vt 0.605407 0.478253
vt 0.625000 0.478253
vt 0.625000 0.272269
vt 0.605407 0.272269
vt 0.605407 0.347172
vt 0.605407 0.328446
vt 0.625000 0.328446
vt 0.625000 0.347172
vt 0.625000 0.290994
vt 0.625000 0.309720
vt 0.605407 0.309720
vt 0.605407 0.290994
vt 0.625000 0.403349
vt 0.625000 0.422075
vt 0.605407 0.422075
vt 0.605407 0.403349
vt 0.625000 0.440801
vt 0.625000 0.459527
vt 0.605407 0.459527
vt 0.605407 0.440801
vt 0.605407 0.384624
vt 0.605407 0.365898
vt 0.625000 0.365898
vt 0.625000 0.384624
vt 0.394593 0.272269
vt 0.375000 0.272269
vt 0.375000 0.347172
vt 0.375000 0.328446
vt 0.394593 0.328446
vt 0.394593 0.347172
vt 0.394593 0.290994
vt 0.394593 0.309720
vt 0.375000 0.309720
vt 0.375000 0.290994
vt 0.394593 0.440801
vt 0.394593 0.459527
vt 0.375000 0.459527
vt 0.375000 0.440801
vt 0.375000 0.384624
vt 0.375000 0.365898
vt 0.394593 0.365898
vt 0.394593 0.384624
vt 0.394593 0.403350
vt 0.394593 0.422075
vt 0.375000 0.422075
vt 0.375000 0.403349
vt 0.375000 0.478253
vt 0.394593 0.478253
vt 0.605407 0.977731
vt 0.625000 0.977731
vt 0.625000 0.921554
vt 0.605407 0.921554
vt 0.605407 0.902828
vt 0.625000 0.902828
vt 0.625000 0.940280
vt 0.625000 0.959006
vt 0.605407 0.959006
vt 0.605407 0.940280
vt 0.625000 0.884102
vt 0.605407 0.884102
vt 0.605407 0.865376
vt 0.625000 0.865376
vt 0.625000 0.827925
vt 0.625000 0.846650
vt 0.605407 0.846650
vt 0.605407 0.827925
vt 0.625000 0.809199
vt 0.605407 0.809199
vt 0.605407 0.790473
vt 0.625000 0.790473
vt 0.605407 0.771747
vt 0.605407 0.769593
vt 0.625000 0.771747
vt 0.603606 0.769593
vt 0.397622 0.769593
vt 0.435073 0.769593
vt 0.416347 0.769593
vt 0.472525 0.769593
vt 0.453799 0.769593
vt 0.509977 0.769593
vt 0.491251 0.769593
vt 0.547428 0.769593
vt 0.528703 0.769593
vt 0.584880 0.769593
vt 0.566154 0.769593
vt 0.597697 0.125000
vt 0.597697 0.139606
vt 0.615857 0.139606
vt 0.615857 0.125000
vt 0.402303 0.125000
vt 0.384143 0.125000
vt 0.384143 0.139606
vt 0.402303 0.139606
vt 0.597697 0.625000
vt 0.615857 0.625000
vt 0.615857 0.610394
vt 0.597697 0.610394
vt 0.384143 0.625000
vt 0.402303 0.625000
vt 0.402303 0.610394
vt 0.384143 0.610394
vt 0.597697 0.125000
vt 0.597697 0.139606
vt 0.615857 0.139606
vt 0.615857 0.125000
vt 0.615857 0.625000
vt 0.615857 0.610394
vt 0.597697 0.610394
vt 0.597697 0.625000
vt 0.597697 0.139606
vt 0.615857 0.139606
vt 0.615857 0.125000
vt 0.597697 0.610394
vt 0.615857 0.610394
vt 0.615857 0.625000
vt 0.384143 0.625000
vt 0.402303 0.625000
s 0
usemtl Material.001
f 28/1/1 2/2/1 4/3/1 40/4/1
f 3/5/1 1/6/1 17/7/1 29/8/1
f 31/9/1 30/10/1 18/11/1 19/12/1
f 33/13/1 32/14/1 20/15/1 21/16/1
f 35/17/1 34/18/1 22/19/1 23/20/1
f 37/21/1 36/22/1 24/23/1 25/24/1
f 39/25/1 38/26/1 26/27/1 27/28/1
f 7/29/2 12/30/2 53/31/2 41/32/2
f 42/33/2 54/34/2 55/35/2 43/36/2
f 44/37/2 56/38/2 57/39/2 45/40/2
f 46/41/2 58/42/2 59/43/2 47/44/2
f 48/45/2 60/46/2 61/47/2 49/48/2
f 50/49/2 62/50/2 63/51/2 51/52/2
f 64/53/2 10/54/2 8/55/2 52/56/2
f 40/4/2 4/3/2 11/57/2 76/58/2
f 9/59/2 3/5/2 29/8/2 65/60/2
f 66/61/2 30/10/2 31/9/2 67/62/2
f 68/63/2 32/14/2 33/13/2 69/64/2
f 70/65/2 34/18/2 35/17/2 71/66/2
f 72/67/2 36/22/2 37/21/2 73/68/2
f 74/69/2 38/26/2 39/25/2 75/70/2
f 52/56/3 8/55/3 6/71/3 88/72/3
f 77/73/3 5/74/3 7/29/3 41/32/3
f 42/33/3 43/36/3 79/75/3 78/76/3
f 44/37/3 45/40/3 81/77/3 80/78/3
f 46/41/3 47/44/3 83/79/3 82/80/3
f 48/45/3 49/48/3 85/81/3 84/82/3
f 50/49/3 51/52/3 87/83/3 86/84/3
f 17/85/4 1/86/4 16/87/4 89/88/4
f 90/89/4 91/90/4 19/91/4 18/92/4
f 92/93/4 93/94/4 21/95/4 20/96/4
f 94/97/4 95/98/4 23/99/4 22/100/4
f 96/101/4 97/102/4 25/103/4 24/104/4
f 98/105/4 99/106/4 27/107/4 26/108/4
f 100/109/4 14/110/4 2/111/4 28/112/4
f 103/113/4 116/114/4 117/115/4 104/116/4
f 106/117/4 119/118/4 120/119/4 107/120/4
f 5/74/4 13/121/4 122/122/4 109/123/4
f 111/124/4 110/125/4 123/126/4 124/127/4
f 108/128/4 121/129/4 115/130/4 112/131/4
f 16/87/4 1/86/4 101/132/4 113/133/4
f 114/134/4 102/135/4 105/136/4 118/137/4
f 129/138/5 128/139/5 103/140/5 104/141/5
f 131/142/5 106/143/5 107/144/5 132/145/5
f 134/146/5 7/29/5 5/74/5 109/147/5
f 135/148/5 110/149/5 111/150/5 136/151/5
f 1/152/5 3/153/5 125/154/5 101/155/5
f 105/156/5 102/157/5 126/158/5 130/159/5
f 108/160/5 112/161/5 127/162/5 133/163/5
f 4/164/6 2/165/6 149/166/6 137/167/6
f 140/168/6 141/169/6 152/170/6 153/171/6
f 139/172/6 138/173/6 150/174/6 151/175/6
f 142/176/6 154/177/6 155/178/6 143/179/6
f 145/180/6 144/181/6 156/182/6 158/183/6
f 146/184/6 157/185/6 159/186/6 148/187/6
f 160/188/6 6/71/6 8/55/6 147/189/6
f 76/190/3 11/191/3 14/192/3 100/193/3
f 89/194/3 16/195/3 9/196/3 65/197/3
f 66/198/3 67/199/3 91/200/3 90/201/3
f 68/202/3 69/203/3 93/204/3 92/205/3
f 70/206/3 71/207/3 95/208/3 94/209/3
f 72/210/3 73/211/3 97/212/3 96/213/3
f 74/214/3 75/215/3 99/216/3 98/217/3
f 12/218/1 13/219/1 161/220/1 53/221/1
f 55/222/1 54/223/1 162/224/1 163/225/1
f 57/226/1 56/227/1 164/228/1 165/229/1
f 59/230/1 58/231/1 166/232/1 167/233/1
f 61/234/1 60/235/1 168/236/1 169/237/1
f 63/238/1 62/239/1 170/240/1 171/241/1
f 172/242/1 15/243/1 10/244/1 64/245/1
f 9/246/6 16/247/6 113/248/6 173/249/6
f 174/250/6 114/251/6 118/252/6 178/253/6
f 175/254/6 115/255/6 121/256/6 181/257/6
f 176/258/6 177/259/6 117/260/6 116/261/6
f 120/262/6 119/263/6 179/264/6 180/265/6
f 13/219/6 12/218/6 182/266/6 122/267/6
f 124/268/6 123/269/6 183/270/6 184/271/6
f 189/272/5 188/273/5 199/274/5 200/275/5
f 191/276/5 202/277/5 203/278/5 192/279/5
f 194/280/5 10/244/5 15/243/5 205/281/5
f 195/282/5 206/283/5 207/284/5 196/285/5
f 14/286/5 11/287/5 185/288/5 198/289/5
f 186/290/5 190/291/5 201/292/5 197/293/5
f 204/294/5 208/295/5 187/296/5 193/297/5
f 8/55/2 10/54/2 194/298/2 147/299/2
f 11/57/2 4/3/2 137/300/2 185/301/2
f 188/302/2 189/303/2 141/304/2 140/305/2
f 138/306/2 139/307/2 190/308/2 186/309/2
f 144/310/2 145/311/2 191/312/2 192/313/2
f 146/314/2 148/315/2 195/316/2 196/317/2
f 193/318/2 187/319/2 142/320/2 143/321/2
f 3/5/2 9/59/2 173/322/2 125/323/2
f 128/324/2 129/325/2 177/326/2 176/327/2
f 174/328/2 178/329/2 130/330/2 126/331/2
f 184/332/2 183/333/2 135/334/2 136/335/2
f 133/336/2 127/337/2 175/338/2 181/339/2
f 180/340/2 179/341/2 131/342/2 132/343/2
f 12/30/2 7/29/2 134/344/2 182/345/2
f 2/111/4 14/110/4 198/346/4 149/347/4
f 152/348/4 200/349/4 199/350/4 153/351/4
f 151/352/4 150/353/4 197/354/4 201/355/4
f 154/356/4 208/357/4 204/358/4 155/359/4
f 158/360/4 156/361/4 203/362/4 202/363/4
f 157/364/4 207/365/4 206/366/4 159/367/4
f 205/368/4 15/369/4 6/71/4 160/370/4
f 88/72/4 6/71/4 15/369/4 172/371/4
f 161/372/4 13/121/4 5/74/4 77/73/4
f 163/373/4 162/374/4 78/76/4 79/75/4
f 165/375/4 164/376/4 80/78/4 81/77/4
f 167/377/4 166/378/4 82/80/4 83/79/4
f 169/379/4 168/380/4 84/82/4 85/81/4
f 171/381/4 170/382/4 86/84/4 87/83/4
f 198/383/3 185/384/3 137/385/3 149/386/3
f 113/387/3 101/388/3 125/389/3 173/390/3
f 197/391/1 150/392/1 138/393/1 186/394/1
f 102/395/1 114/396/1 174/397/1 126/398/1
f 201/383/3 190/384/3 139/385/3 151/386/3
f 118/387/3 105/388/3 130/389/3 178/390/3
f 200/391/1 152/392/1 141/393/1 189/394/1
f 104/395/1 117/396/1 177/397/1 129/398/1
f 199/383/3 188/384/3 140/385/3 153/386/3
f 116/387/3 103/388/3 128/389/3 176/390/3
f 208/391/1 154/392/1 142/393/1 187/394/1
f 112/395/1 115/396/1 175/397/1 127/398/1
f 204/383/3 193/384/3 143/385/3 155/386/3
f 181/390/3 121/387/3 108/388/3 133/389/3
f 156/392/1 144/393/1 192/394/1 203/391/1
f 120/396/1 180/397/1 132/398/1 107/395/1
f 145/385/3 158/386/3 202/383/3 191/384/3
f 179/390/3 119/387/3 106/388/3 131/389/3
f 157/392/1 146/393/1 196/394/1 207/391/1
f 124/396/1 184/397/1 136/398/1 111/395/1
f 148/385/3 159/386/3 206/383/3 195/384/3
f 183/390/3 123/387/3 110/388/3 135/389/3
f 160/392/1 147/393/1 194/394/1 205/391/1
f 122/396/1 182/397/1 134/398/1 109/395/1
f 172/399/5 64/400/5 52/401/5 88/402/5
f 28/388/5 40/389/5 76/390/5 100/387/5
f 87/403/6 51/404/6 63/405/6 171/406/6
f 39/398/6 27/395/6 99/396/6 75/397/6
f 170/399/5 62/400/5 50/401/5 86/402/5
f 26/388/5 38/389/5 74/390/5 98/387/5
f 85/403/6 49/404/6 61/405/6 169/406/6
f 37/398/6 25/395/6 97/396/6 73/397/6
f 168/399/5 60/400/5 48/401/5 84/402/5
f 24/388/5 36/389/5 72/390/5 96/387/5
f 83/403/6 47/404/6 59/405/6 167/406/6
f 71/397/6 35/398/6 23/395/6 95/396/6
f 58/407/5 46/408/5 82/409/5 166/383/5
f 22/388/5 34/389/5 70/390/5 94/387/5
f 57/410/6 165/391/6 81/392/6 45/411/6
f 69/397/6 33/398/6 21/395/6 93/396/6
f 56/407/5 44/408/5 80/409/5 164/383/5
f 32/389/5 68/390/5 92/387/5 20/388/5
f 55/410/6 163/391/6 79/392/6 43/411/6
f 67/397/6 31/398/6 19/395/6 91/396/6
f 54/407/5 42/408/5 78/409/5 162/383/5
f 30/389/5 66/390/5 90/387/5 18/388/5
f 53/410/6 161/391/6 77/412/6 41/411/6
f 65/397/6 29/398/6 17/413/6 89/414/6
